# xmcd CD database file generated by Grip 3.3.1
# 
# Track frame offsets:
#       150
#       15980
#       32865
#       50820
#       68087
#       86010
#       104385
#       120675
#       144892
# 
# Disc length: 2223 seconds
# 
# Revision: 2
# Processed by: cddbd v1.5.2PL0 Copyright (c) Steve Scherf et al.
# Submitted via: Grip 3.3.1
# 
DISCID=7308ad09
DTITLE=茅原実里 - HEROINE
DYEAR=2004
DGENRE=Other
TTITLE0=魔女っ子メグちゃん
TTITLE1=jellybeans
TTITLE2=マリオネット
TTITLE3=傘の下
TTITLE4=涙の記念日
TTITLE5=NAKED HEART
TTITLE6=Emotional
TTITLE7=粉雪　～long distance～
TTITLE8=マリオネット（Remix）
EXTD=YEAR: 2004
EXTT0=
EXTT1=
EXTT2=
EXTT3=
EXTT4=
EXTT5=
EXTT6=
EXTT7=
EXTT8=
PLAYORDER=
